<svg width="19" height="19" viewBox="0 0 19 19" fill="none" xmlns="http://www.w3.org/2000/svg">
<mask id="path-1-outside-1_1_53" maskUnits="userSpaceOnUse" x="0" y="0" width="19" height="19" fill="black">
<rect fill="white" width="19" height="19"/>
<path d="M2 9.5C2 5.96446 2 4.1967 3.09835 3.09835C4.1967 2 5.96446 2 9.5 2C9.75612 2 9.88415 2 10.0143 2.01136C10.6213 2.06436 11.2156 2.3105 11.6823 2.70223C11.7823 2.78626 11.8751 2.87905 12.0606 3.06458L15.9355 6.93933C16.121 7.12488 16.2137 7.21765 16.2978 7.31775C16.6895 7.78443 16.9356 8.37868 16.9886 8.98565C17 9.11585 17 9.24388 17 9.5C17 13.0355 17 14.8033 15.9016 15.9016C14.8033 17 13.0355 17 9.5 17C5.96446 17 4.1967 17 3.09835 15.9016C2.36805 15.1713 2.12333 14.1451 2.04132 12.5"/>
</mask>
<path d="M0.4 9.5C0.4 10.3837 1.11634 11.1 2 11.1C2.88366 11.1 3.6 10.3837 3.6 9.5H0.4ZM3.09835 3.09835L4.22972 4.22973L4.22973 4.22972L3.09835 3.09835ZM10.0143 2.01136L10.1535 0.417426L10.1535 0.417421L10.0143 2.01136ZM11.6823 2.70223L12.7113 1.47703L12.7109 1.4767L11.6823 2.70223ZM12.0606 3.06458L13.192 1.9332L13.192 1.93316L12.0606 3.06458ZM15.9355 6.93933L14.8041 8.07071L14.8041 8.07073L15.9355 6.93933ZM16.2978 7.31775L17.5233 6.28908L17.523 6.28873L16.2978 7.31775ZM16.9886 8.98565L15.3947 9.1247L15.3947 9.12521L16.9886 8.98565ZM15.9016 15.9016L14.7703 14.7702L14.7702 14.7703L15.9016 15.9016ZM3.09835 15.9016L4.22974 14.7703L4.2297 14.7702L3.09835 15.9016ZM3.63934 12.4203C3.59535 11.5378 2.84422 10.858 1.96166 10.902C1.0791 10.946 0.399314 11.6971 0.443309 12.5797L3.63934 12.4203ZM3.6 9.5C3.6 7.687 3.6034 6.48821 3.72303 5.59843C3.83647 4.75467 4.02738 4.43207 4.22972 4.22973L1.96699 1.96698C1.07098 2.86298 0.71271 3.97343 0.551562 5.17203C0.396602 6.3246 0.4 7.77746 0.4 9.5H3.6ZM4.22973 4.22972C4.43207 4.02738 4.75467 3.83647 5.59843 3.72303C6.48821 3.6034 7.687 3.6 9.5 3.6V0.4C7.77746 0.4 6.3246 0.396602 5.17203 0.551562C3.97343 0.71271 2.86298 1.07098 1.96698 1.96699L4.22973 4.22972ZM9.5 3.6C9.78122 3.6 9.82996 3.60135 9.87525 3.6053L10.1535 0.417421C9.93834 0.398648 9.73103 0.4 9.5 0.4V3.6ZM9.87518 3.6053C10.1548 3.62971 10.4385 3.74721 10.6537 3.92777L12.7109 1.4767C11.9926 0.873795 11.0878 0.499 10.1535 0.417426L9.87518 3.6053ZM10.6533 3.92743C10.688 3.95661 10.7252 3.99186 10.9293 4.196L13.192 1.93316C13.025 1.76623 12.8767 1.61591 12.7113 1.47703L10.6533 3.92743ZM10.9293 4.19596L14.8041 8.07071L17.0668 5.80796L13.192 1.9332L10.9293 4.19596ZM14.8041 8.07073C15.0077 8.27437 15.0433 8.31189 15.0726 8.34678L17.523 6.28873C17.3841 6.12342 17.2343 5.97539 17.0668 5.80794L14.8041 8.07073ZM15.0723 8.34643C15.2528 8.56147 15.3703 8.84512 15.3947 9.1247L18.5825 8.8466C18.501 7.91223 18.1262 7.00738 17.5233 6.28908L15.0723 8.34643ZM15.3947 9.12521C15.3986 9.17022 15.4 9.21869 15.4 9.5H18.6C18.6 9.26906 18.6014 9.06148 18.5825 8.84609L15.3947 9.12521ZM15.4 9.5C15.4 11.313 15.3966 12.5118 15.277 13.4016C15.1635 14.2453 14.9726 14.5679 14.7703 14.7702L17.033 17.033C17.929 16.137 18.2873 15.0266 18.4484 13.828C18.6034 12.6754 18.6 11.2225 18.6 9.5H15.4ZM14.7702 14.7703C14.5679 14.9726 14.2453 15.1635 13.4016 15.277C12.5118 15.3966 11.313 15.4 9.5 15.4V18.6C11.2225 18.6 12.6754 18.6034 13.828 18.4484C15.0266 18.2873 16.137 17.929 17.033 17.033L14.7702 14.7703ZM9.5 15.4C7.687 15.4 6.48821 15.3966 5.59843 15.277C4.75468 15.1635 4.43208 14.9726 4.22974 14.7703L1.96697 17.033C2.86297 17.929 3.97342 18.2873 5.17203 18.4484C6.3246 18.6034 7.77746 18.6 9.5 18.6V15.4ZM4.2297 14.7702C3.95594 14.4965 3.71909 14.0202 3.63934 12.4203L0.443309 12.5797C0.527567 14.2699 0.780159 15.8462 1.967 17.033L4.2297 14.7702Z" fill="#E30613" mask="url(#path-1-outside-1_1_53)"/>
<path d="M4.99419 12.9487C5.17567 13.8611 5.8889 14.5744 6.80131 14.7558L6.80141 14.7559C7.02609 14.8005 7.27692 14.8003 7.56045 14.8C7.58178 14.8 7.60329 14.8 7.625 14.8H11.375C11.3967 14.8 11.4182 14.8 11.4396 14.8C11.7231 14.8003 11.9739 14.8005 12.1986 14.7559L12.1987 14.7558C13.1111 14.5744 13.8244 13.8611 14.0058 12.9487L14.0059 12.9486C14.0505 12.7239 14.0503 12.4731 14.05 12.1896C14.05 12.1682 14.05 12.1467 14.05 12.125C14.05 12.1033 14.05 12.0818 14.05 12.0604C14.0503 11.7769 14.0505 11.5261 14.0059 11.3014L14.0058 11.3013C13.8244 10.3889 13.1111 9.67564 12.1987 9.49417L12.1986 9.49415C11.9739 9.44949 11.7231 9.44971 11.4396 9.44996C11.4182 9.44998 11.3967 9.45 11.375 9.45H7.625C7.60329 9.45 7.58177 9.44998 7.56043 9.44996C7.27692 9.44971 7.02609 9.44949 6.80141 9.49415L6.80131 9.49417C5.8889 9.67564 5.17567 10.3889 4.99419 11.3013M4.99419 12.9487L5.77882 12.7926M4.99419 12.9487L5.77882 12.7926M4.99419 12.9487C4.94949 12.724 4.94971 12.4731 4.94996 12.1896C4.94998 12.1682 4.95 12.1467 4.95 12.125C4.95 12.1033 4.94998 12.0818 4.94996 12.0604C4.94971 11.7769 4.94949 11.526 4.99419 11.3013M5.77882 12.7926C5.75 12.6477 5.75 12.4735 5.75 12.125C5.75 11.7765 5.75 11.6023 5.77882 11.4574M5.77882 12.7926C5.89718 13.3877 6.36233 13.8528 6.95737 13.9712C7.10227 14 7.2765 14 7.625 14H11.375C11.7235 14 11.8977 14 12.0426 13.9712C12.6377 13.8528 13.1028 13.3877 13.2212 12.7926C13.25 12.6477 13.25 12.4735 13.25 12.125C13.25 11.7765 13.25 11.6023 13.2212 11.4574C13.1028 10.8623 12.6377 10.3971 12.0426 10.2788C11.8977 10.25 11.7235 10.25 11.375 10.25H7.625C7.2765 10.25 7.10227 10.25 6.95737 10.2788C6.36233 10.3971 5.89718 10.8623 5.77882 11.4574M4.99419 11.3013L5.77882 11.4574M4.99419 11.3013L5.77882 11.4574" stroke="#E30613" stroke-width="1.6"/>
</svg>
