<svg width="22" height="18" viewBox="0 0 22 18" fill="none" xmlns="http://www.w3.org/2000/svg">
<path d="M4.5 17H7M7 3H4.2C3.0799 3 2.51984 3 2.09202 3.21799C1.71569 3.40973 1.40973 3.71569 1.21799 4.09202C1 4.51984 1 5.0799 1 6.2V9.8C1 10.9201 1 11.4802 1.21799 11.908C1.40973 12.2843 1.71569 12.5903 2.09202 12.782C2.51984 13 3.0799 13 4.2 13H7M14.2 17H17.8C18.9201 17 19.4802 17 19.908 16.782C20.2843 16.5903 20.5903 16.2843 20.782 15.908C21 15.4802 21 14.9201 21 13.8V4.2C21 3.0799 21 2.51984 20.782 2.09202C20.5903 1.71569 20.2843 1.40973 19.908 1.21799C19.4802 1 18.9201 1 17.8 1H14.2C13.0799 1 12.5198 1 12.092 1.21799C11.7157 1.40973 11.4097 1.71569 11.218 2.09202C11 2.51984 11 3.07989 11 4.2V13.8C11 14.9201 11 15.4802 11.218 15.908C11.4097 16.2843 11.7157 16.5903 12.092 16.782C12.5198 17 13.0799 17 14.2 17ZM17 12C17 12.5523 16.5523 13 16 13C15.4477 13 15 12.5523 15 12C15 11.4477 15.4477 11 16 11C16.5523 11 17 11.4477 17 12Z" stroke="#676A75" stroke-width="2" stroke-linecap="round" stroke-linejoin="round"/>
</svg>
