<svg width="21" height="21" viewBox="0 0 21 21" fill="none" xmlns="http://www.w3.org/2000/svg">
<path d="M10.5 4.8V20M10.5 4.8H7.14107C6.64616 4.8 6.17152 4.59982 5.82156 4.2435C5.4716 3.88718 5.275 3.40391 5.275 2.9C5.275 2.39609 5.4716 1.91282 5.82156 1.5565C6.17152 1.20018 6.64616 1 7.14107 1C9.75357 1 10.5 4.8 10.5 4.8ZM10.5 4.8H13.8589C14.3538 4.8 14.8285 4.59982 15.1784 4.2435C15.5284 3.88718 15.725 3.40391 15.725 2.9C15.725 2.39609 15.5284 1.91282 15.1784 1.5565C14.8285 1.20018 14.3538 1 13.8589 1C11.2464 1 10.5 4.8 10.5 4.8ZM18.1 9.55V16.96C18.1 18.0241 18.1 18.5561 17.8929 18.9626C17.7108 19.3201 17.4201 19.6108 17.0626 19.7929C16.6561 20 16.1241 20 15.06 20L5.94 20C4.8759 20 4.34385 20 3.93742 19.7929C3.57991 19.6108 3.28925 19.3201 3.10709 18.9626C2.9 18.5561 2.9 18.0241 2.9 16.96V9.55M1 6.32L1 8.03C1 8.56205 1 8.82807 1.10354 9.03129C1.19462 9.21004 1.33995 9.35538 1.51871 9.44646C1.72193 9.55 1.98795 9.55 2.52 9.55L18.48 9.55C19.0121 9.55 19.2781 9.55 19.4813 9.44646C19.66 9.35538 19.8054 9.21005 19.8965 9.03129C20 8.82808 20 8.56205 20 8.03V6.32C20 5.78795 20 5.52193 19.8965 5.31871C19.8054 5.13996 19.66 4.99462 19.4813 4.90354C19.2781 4.8 19.012 4.8 18.48 4.8L2.52 4.8C1.98795 4.8 1.72193 4.8 1.51871 4.90354C1.33996 4.99462 1.19462 5.13996 1.10354 5.31871C1 5.52193 1 5.78795 1 6.32Z" stroke="#6D707A" stroke-width="1.8" stroke-linecap="round" stroke-linejoin="round"/>
</svg>
