<svg width="16" height="21" viewBox="0 0 16 21" fill="none" xmlns="http://www.w3.org/2000/svg">
<path d="M7.65 15.725H7.6595M4.04 20H11.26C12.3241 20 12.8561 20 13.2626 19.7929C13.6201 19.6108 13.9108 19.3201 14.0929 18.9626C14.3 18.5562 14.3 18.0241 14.3 16.96V4.04C14.3 2.9759 14.3 2.44385 14.0929 2.03742C13.9108 1.67991 13.6201 1.38925 13.2626 1.20709C12.8561 1 12.3241 1 11.26 1H4.04C2.9759 1 2.44385 1 2.03742 1.20709C1.67991 1.38925 1.38925 1.67991 1.20709 2.03742C1 2.44385 1 2.9759 1 4.04V16.96C1 18.0241 1 18.5562 1.20709 18.9626C1.38925 19.3201 1.67991 19.6108 2.03742 19.7929C2.44385 20 2.9759 20 4.04 20ZM8.125 15.725C8.125 15.9873 7.91234 16.2 7.65 16.2C7.38766 16.2 7.175 15.9873 7.175 15.725C7.175 15.4627 7.38766 15.25 7.65 15.25C7.91234 15.25 8.125 15.4627 8.125 15.725Z" stroke="#6D707A" stroke-width="2" stroke-linecap="round" stroke-linejoin="round"/>
</svg>
