<svg width="21" height="21" viewBox="0 0 21 21" fill="none" xmlns="http://www.w3.org/2000/svg">
<path d="M5.275 11.45L6.02024 12.9405C6.27245 13.4449 6.39856 13.6971 6.56703 13.9157C6.71652 14.1096 6.89039 14.2835 7.08433 14.433C7.30288 14.6014 7.5551 14.7275 8.05953 14.9798L9.55 15.725L8.05953 16.4702C7.5551 16.7224 7.30288 16.8486 7.08433 17.017C6.89039 17.1665 6.71652 17.3404 6.56703 17.5343C6.39856 17.7529 6.27245 18.0051 6.02024 18.5095L5.275 20L4.52976 18.5095C4.27755 18.0051 4.15144 17.7529 3.98297 17.5343C3.83348 17.3404 3.65961 17.1665 3.46567 17.017C3.24712 16.8486 2.9949 16.7224 2.49047 16.4702L1 15.725L2.49047 14.9798C2.9949 14.7275 3.24711 14.6014 3.46567 14.433C3.65961 14.2835 3.83348 14.1096 3.98297 13.9157C4.15144 13.6971 4.27755 13.4449 4.52976 12.9405L5.275 11.45Z" stroke="#6D707A" stroke-width="1.8" stroke-linecap="round" stroke-linejoin="round"/>
<path d="M13.35 1L14.4697 3.9112C14.7376 4.60777 14.8716 4.95605 15.0799 5.24901C15.2645 5.50866 15.4913 5.73551 15.751 5.92013C16.044 6.12844 16.3922 6.2624 17.0888 6.53031L20 7.65L17.0888 8.76969C16.3922 9.0376 16.044 9.17156 15.751 9.37987C15.4913 9.56449 15.2645 9.79134 15.0799 10.051C14.8716 10.344 14.7376 10.6922 14.4697 11.3888L13.35 14.3L12.2303 11.3888C11.9624 10.6922 11.8284 10.344 11.6201 10.051C11.4355 9.79134 11.2087 9.56449 10.949 9.37987C10.6561 9.17156 10.3078 9.0376 9.6112 8.76969L6.7 7.65L9.6112 6.53031C10.3078 6.2624 10.656 6.12844 10.949 5.92013C11.2087 5.73551 11.4355 5.50866 11.6201 5.24901C11.8284 4.95605 11.9624 4.60777 12.2303 3.9112L13.35 1Z" stroke="#6D707A" stroke-width="1.8" stroke-linecap="round" stroke-linejoin="round"/>
</svg>
